<?xml version="1.0" encoding="UTF-8"?>
<svg id="Layer_1" xmlns="http://www.w3.org/2000/svg" version="1.1" viewBox="0 0 217 217">
  <!-- Generator: Adobe Illustrator 29.4.0, SVG Export Plug-In . SVG Version: 2.1.0 Build 152)  -->
  <defs>
    <style>
      .st0 {
        fill: #004666;
      }

      .st1 {
        fill: #007bb3;
      }

      .st2 {
        fill: #002333;
      }
    </style>
  </defs>
  <g id="Logo">
    <path class="st2" d="M135.7,141c2.9,1,2.9,5.5.7,7.6-2.2,2.1-5.5,2.4-8.6,2.6-3.1.2-6.3.3-9.4-.1-3.8-.5-7.4-1.9-11-3.3-4.9-1.8-9.8-3.7-15-4.2-5.2-.5-10.7.5-14.8,3.8-2.5-.9-2.9-4.5-1.4-6.6,1.5-2.1,4.2-3,6.8-3.6,7-1.4,14.4-.7,21,2.1,6.5,2.7,13.4,4.7,20.3,5.8,4,.7,7.4-3,11.3-4.1Z"/>
    <path class="st2" d="M91.9,98.5c1.5,0,2.6,1.6,2.7,3.1s-.2,3,0,4.6c.2,1.4.8,2.7,1.6,3.9,3.1,4.7,8.3,7.9,13.8,8.6,1.1.1,1.4,1.9.7,2.7-.8.8-2.1,1-3.2.9-4.3-.4-8.2-2.9-11.4-5.7-1-.9-2-1.8-2.9-2.9-2.2-2.8-3.1-6.3-3.6-9.7-.2-1.1-.3-2.3,0-3.3.3-1.1,1.3-2,2.4-2Z"/>
    <path class="st0" d="M108.3,204.2c-4.2,0-8.1-2.2-11.7-4.3-20.8-11.9-41.6-23.9-62.4-35.8-3.3-1.9-6.8-4-8.7-7.4-1.7-3.1-1.7-6.7-1.7-10.2,0-25.5,0-51.1,0-76.6,0-3.6,0-7.4,2-10.5,1.6-2.6,4.3-4.2,7-5.7,20.8-12.1,41.5-24.1,62.3-36.2,3.8-2.2,7.9-4.5,12.3-4.8,5.4-.3,10.4,2.5,15.1,5.2,19.4,11.2,38.8,22.3,58.2,33.5,4.8,2.8,10,6,11.7,11.2.7,2.2.7,4.6.7,6.9,0,25.5,0,51,0,76.5,0,3.8,0,7.8-2.1,11-1.8,2.8-4.7,4.6-7.6,6.3-20.8,12.1-41.6,24.1-62.3,36.2-4,2.3-8.2,4.7-12.8,4.6M107.7,199c3.3.2,6.3-1.5,9.1-3.1,21.1-12.1,42.1-24.2,63.2-36.3,2.8-1.6,5.6-3.3,7.3-6,1.8-3,1.9-6.6,1.9-10.1,0-23.5,0-47,0-70.6,0-2.7,0-5.5-1-8-1.7-4.2-5.9-6.7-9.8-8.9-20.5-11.8-41-23.5-61.6-35.3-2.2-1.2-4.4-2.5-6.9-2.8-4.1-.5-7.9,1.6-11.5,3.7-20.6,11.9-41.3,23.8-61.9,35.7-2.1,1.2-4.2,2.4-5.7,4.3-3,3.6-3.2,8.8-3.2,13.5,0,22.3,0,44.5,0,66.8,0,3.9,0,7.9,2,11.3,1.9,3.2,5.3,5.3,8.6,7.1,20.8,12,41.6,23.9,62.4,35.9,2.3,1.3,4.6,2.6,7.2,2.8Z"/>
    <path class="st1" d="M14,55.8c1.7-4.6,6.3-7.5,10.6-9.9,23.8-13.7,47.5-27.5,71.3-41.2,4.3-2.5,9.1-5.1,14.1-4.6,3.3.3,6.3,2,9.2,3.7,18.2,10.4,36.4,20.8,54.6,31.3,6.5,3.7,13.1,7.5,19.6,11.3,3.4,2,6.9,4.2,8.8,7.6,1.9,3.3,1.9,7.3,1.9,11.2,0,29,0,58.1,0,87.1,0,3.3,0,6.8-1.4,9.8-2,4.2-6.2,6.7-10.1,9-24.1,13.9-48.3,27.8-72.4,41.7-3.9,2.2-8,4.5-12.4,4.3-3.6-.2-6.9-2-10-3.8-18.5-10.6-37-21.2-55.5-31.8-6.3-3.6-12.6-7.2-18.8-11.1-3.7-2.3-7.7-5-9.2-9.2-.9-2.3-.9-4.9-.9-7.4,0-30.1,0-60.3-.1-90.4,0-2.5,0-5.1.9-7.5M109.3,7.4c-4-.3-7.7,1.7-11.1,3.7-23.7,13.8-47.4,27.5-71,41.3-2,1.2-4,2.4-5.5,4.1-2.9,3.5-3.1,8.4-3.1,12.9-.3,25.9-.3,51.8,0,77.6,0,4.3.2,8.9,2.7,12.5,1.8,2.5,4.5,4.1,7.2,5.6,23.8,13.7,47.5,27.4,71.3,41.1,2.9,1.6,5.9,3.4,9.2,3.2,2.9,0,5.6-1.6,8.1-3.1,23.5-13.6,47-27.2,70.5-40.7,3.3-1.9,6.8-4,8.8-7.2,2.2-3.6,2.3-8.1,2.3-12.3,0-24.6,0-49.3,0-73.9,0-5.8-.2-12.3-4.2-16.6-1.6-1.8-3.8-3-5.9-4.2-23.7-13.6-47.4-27.3-71.1-40.9-2.5-1.4-5.1-2.9-8-3.1Z"/>
    <path class="st2" d="M90.8,150.4c3.7-.6,7.6,0,11.2.8,2.9.7,5.7,1.5,8.5,2.5,7.5,2.6,15.2,5.8,23,4.6,1.9-.3,3.9-.9,5.1-2.5,1-1.3,3.4-1,4.3.3,1,1.4.7,3.3-.2,4.7-.9,1.4-2.4,2.3-4,3-4.9,2.2-10.6,2.5-15.7.9-6.9-2.2-13.8-4.4-20.7-6.6-3.9-1.2-8.2-2.5-12-.9-1.8.7-3.4,2.1-5.3,2.7-1.9.6-4.5-.2-4.9-2.1-.3-1.6,1-3.1,2.3-4.1,2.4-1.8,5.3-3,8.3-3.4Z"/>
    <path class="st1" d="M107.2,192.9c-2.7-.4-5.2-1.8-7.6-3.2-18.6-10.7-37.1-21.4-55.7-32-3-1.7-6.2-3.6-7.7-6.7-1.2-2.4-1.3-5.3-1.3-8,0-22.6-.1-45.2-.2-67.8,0-3.5,0-7.3,2-10.3,1.5-2.3,4.1-3.8,6.5-5.2,18.9-10.9,37.9-21.8,56.8-32.6,2.6-1.5,5.4-3.1,8.4-3.3,3.9-.3,7.6,1.8,11,3.7,18.5,10.6,36.9,21.2,55.4,31.9,2.7,1.6,5.6,3.2,7.2,5.9,1.7,2.8,1.7,6.3,1.7,9.6,0,21.9,0,43.8,0,65.7,0,4.1,0,8.6-2.5,12-1.7,2.3-4.2,3.8-6.7,5.2-17.9,10.3-35.9,20.6-53.8,30.9-4.2,2.4-8.9,4.9-13.7,4.3M100.8,32.3c-18,10.5-36.1,21-54.1,31.4-2.3,1.3-4.6,2.7-6.1,4.8-2,2.9-2.1,6.7-2.1,10.3,0,19.6,0,39.1-.1,58.7,0,3.3,0,6.7,1.6,9.6,1.7,3.2,5.1,5.2,8.2,7,17.7,10.2,35.4,20.3,53.1,30.5,2,1.2,4.1,2.3,6.4,2.7,4.1.6,8.1-1.6,11.8-3.7,18.4-10.6,36.7-21.3,55.1-31.9,5.2-3,5.8-10.1,5.8-16.1,0-18.9,0-37.7,0-56.6,0-3.7,0-7.6-2.1-10.6-1.6-2.3-4.1-3.8-6.5-5.2-18.1-10.4-36.1-20.8-54.2-31.3-2.4-1.4-4.9-2.8-7.7-2.9-3.2-.1-6.2,1.5-9,3.2Z"/>
    <path class="st2" d="M108.9,51.5c.5,0,.9.3,1.3.7,8.2,7.8,15.3,16.8,21,26.6,4.1,7.1,7.5,14.9,7.7,23,.2,8.4-3.1,16.9-9.2,22.8-9.5,9.2-25.3,11-36.6,4.1-11.3-6.9-16.9-21.8-13-34.5,4.1-13,11.1-25.1,20.5-35.1,2.3-2.4,4.7-4.7,7.1-7,.3-.3.7-.7,1.2-.7M108.8,60.4c-8.6,8.5-15.5,18.6-20.5,29.7-1.9,4.3-2.9,9.1-2.7,13.8.3,11.8,11,22.3,22.8,22.4,11.8.1,22.7-10.2,23.2-22,.6-12.6-6.6-24.2-14.4-34-2.7-3.4-5.5-6.7-8.4-9.9Z"/>
  </g>
</svg>